<svg width="30" height="30" viewBox="0 0 30 30" fill="none" xmlns="http://www.w3.org/2000/svg">
<circle cx="15" cy="15" r="14.5" stroke="#495057"/>
<path d="M13.0642 18.425C13.0642 17.5583 13.2558 16.8417 13.6392 16.275C14.0392 15.7083 14.6142 15.0833 15.3642 14.4C15.9142 13.9 16.3142 13.4833 16.5642 13.15C16.8308 12.8 16.9642 12.4083 16.9642 11.975C16.9642 11.3583 16.7142 10.875 16.2142 10.525C15.7308 10.1583 15.0808 9.975 14.2642 9.975C13.4808 9.975 12.7808 10.1417 12.1642 10.475C11.5642 10.7917 11.0558 11.2417 10.6392 11.825L7.61416 10.05C8.31416 8.98333 9.25583 8.15833 10.4392 7.575C11.6392 6.99167 13.0558 6.7 14.6892 6.7C16.6058 6.7 18.1392 7.10833 19.2892 7.925C20.4558 8.74167 21.0392 9.875 21.0392 11.325C21.0392 12.0083 20.9225 12.6083 20.6892 13.125C20.4725 13.6417 20.1975 14.0833 19.8642 14.45C19.5475 14.8 19.1308 15.2083 18.6142 15.675C17.9975 16.225 17.5475 16.6917 17.2642 17.075C16.9808 17.4417 16.8392 17.8917 16.8392 18.425H13.0642ZM14.9642 24.7C14.2808 24.7 13.7058 24.4833 13.2392 24.05C12.7892 23.6 12.5642 23.0583 12.5642 22.425C12.5642 21.7917 12.7892 21.2667 13.2392 20.85C13.6892 20.4167 14.2642 20.2 14.9642 20.2C15.6642 20.2 16.2392 20.4167 16.6892 20.85C17.1392 21.2667 17.3642 21.7917 17.3642 22.425C17.3642 23.0583 17.1308 23.6 16.6642 24.05C16.2142 24.4833 15.6475 24.7 14.9642 24.7Z" fill="#495057"/>
</svg>
