<svg width="200" height="61" viewBox="0 0 200 61" fill="none" xmlns="http://www.w3.org/2000/svg">
<path fill-rule="evenodd" clip-rule="evenodd" d="M33.4374 0H33.8254C33.3825 0.487421 33.0121 1.03418 32.7254 1.62393C31.6114 4.40361 32.4464 6.23607 29.8144 7.80295C29.2111 8.21687 28.5088 8.4694 27.7764 8.53574C27.9414 7.82754 28.8694 6.93934 28.3264 5.92426L27.2594 6.43377C25.0694 7.03967 24.0594 6.39148 23.4424 8.69607C21.7884 8.38525 19.8704 6.27443 21.2424 4.46066C22.2284 3.15738 24.2114 3.22426 25.9974 2.67738C26.5454 2.50918 26.9204 2.05672 27.4204 1.94459C27.8394 2.94984 27.0914 3.61672 26.8384 4.33279C28.8504 3.83311 29.3994 2.53672 30.7524 1.46656C31.5862 0.876435 32.4873 0.38424 33.4374 0V0ZM19.3374 9.55475L29.1064 9.58623C29.7184 9.67672 31.9634 9.38361 32.2764 9.65016C32.3986 10.2076 32.3877 10.7854 32.2444 11.338C31.8941 11.3092 31.5415 11.3528 31.2094 11.4659C30.4854 11.942 30.0094 13.8266 29.1394 14.0459L24.0604 14.0144C23.479 14.0989 22.8868 14.0772 22.3134 13.9505C21.5074 13.439 21.1274 11.6715 20.1784 11.3075L19.3374 11.2761V9.55475V9.55475ZM1.34838 12.8675H16.0344L16.0024 14.6508C12.5024 14.883 12.8644 18.4702 12.8644 22.1351L12.8964 34.6515C12.8964 37.5167 12.8134 40.4862 12.9964 43.1548H12.9284L11.5374 43.5374C9.9302 44.0864 8.25444 44.4173 6.55638 44.521L6.13538 43.3407C5.91968 42.5236 5.75768 41.6936 5.65038 40.8561C5.46959 38.9715 5.43616 37.0761 5.55038 35.1866L5.52138 25.0013C5.52138 22.7833 5.93538 17.6597 5.13338 16.3062C4.43338 15.1328 3.14838 14.5957 1.34838 14.523V12.8675ZM35.1194 12.8675H45.7614L45.7294 14.7462C44.9426 14.7348 44.1724 14.969 43.5294 15.4151C41.6294 16.6534 42.0734 18.8931 42.0734 21.8803C42.0627 24.5767 42.052 27.2734 42.0414 29.9705L39.0004 31.8816H38.9684V21.0207C38.9684 19.3348 39.1684 17.2633 38.4834 16.2433C38.092 15.7398 37.5799 15.3396 36.9929 15.0784C36.4059 14.8171 35.7622 14.703 35.1194 14.7462V12.8675V12.8675ZM28.3264 15.001L27.7114 23.4728C26.518 23.3142 25.3071 23.3357 24.1204 23.5367L23.4084 15.001H28.3254H28.3264ZM43.6264 22.4262C46.4154 22.379 49.1214 22.8561 48.3814 25.9938L48.0254 27.0757C46.9764 29.4433 44.1424 31.8462 42.0084 33.1908C42.5164 44.2938 38.8264 51.1033 31.9484 55.0397C28.2323 57.0029 23.9237 57.5906 19.8048 56.696C15.6858 55.8014 12.0294 53.4838 9.49938 50.1639L7.55838 46.979C4.89238 47.0282 0.866378 46.4695 0.118378 44.7816C-0.00600944 44.3527 -0.0327724 43.902 0.0399918 43.4617C0.112756 43.0214 0.283259 42.6022 0.539378 42.2341C1.73679 40.3704 3.35247 38.8014 5.26238 37.6475H5.29438C5.28371 38.1144 5.27305 38.5816 5.26238 39.0492C3.77531 39.958 2.4974 41.162 1.51038 42.5843C1.25625 42.8874 1.13119 43.2755 1.16139 43.6673C1.19158 44.0591 1.37469 44.4242 1.67238 44.6862C3.1712 45.2732 4.80644 45.4387 6.39538 45.1643C9.61338 44.6933 12.7919 43.9908 15.9054 43.0623C24.8592 40.4156 33.3551 36.4535 41.1054 31.3102C42.8354 30.1102 46.6294 27.719 47.2194 25.6407C47.9364 23.1128 44.1374 23.3705 42.3674 23.762V22.5816L43.6264 22.4262ZM38.4834 23.3813C38.5935 23.7753 38.6156 24.188 38.5484 24.5911C37.1738 24.8485 35.8298 25.2441 34.5374 25.7715C34.1059 26.0208 33.6148 26.1528 33.1144 26.1541L32.1444 25.5167V25.4754L36.1234 24.0423L38.4834 23.3813ZM28.3584 28.3141L19.7214 29.938L19.4624 29.5879L21.0474 26.1452C21.1753 25.6026 21.4179 25.0925 21.7594 24.6482L23.0534 24.2341C25.5965 23.5407 28.3089 23.7784 30.6874 24.903L29.2314 27.6423C29.1273 27.6109 29.0171 27.6048 28.9102 27.6243C28.8032 27.6438 28.7025 27.6884 28.6168 27.7544C28.5311 27.8203 28.4629 27.9056 28.4179 28.0031C28.3729 28.1005 28.3525 28.2072 28.3584 28.3141V28.3141ZM21.2424 24.9059C21.1576 25.3754 20.9699 25.8212 20.6924 26.2121L19.2364 29.4925C18.988 29.5027 18.7497 29.5922 18.5574 29.7472L16.8754 29.0164L16.9074 28.918C17.5491 27.9581 18.2977 27.0717 19.1394 26.2751C19.7874 25.7705 20.5834 25.4252 21.2424 24.9059ZM30.8814 25.0652C31.2587 25.1271 31.5959 25.3332 31.8194 25.6387L32.0134 27.5813L29.6844 28.0269L29.4904 27.7377L30.8814 25.0652ZM32.1104 25.798C32.7594 26.1259 33.3151 26.6076 33.7274 27.1997C33.2671 27.3962 32.7729 27.5044 32.2714 27.5184L32.1104 25.798ZM33.9214 27.4544C35.0394 28.0446 36.4294 31.7115 36.4444 33.601L33.0154 35.3528L32.4684 29.6833C32.3616 29.052 32.328 28.4109 32.3684 27.7721L33.9214 27.4544ZM31.9154 27.837H32.0444L32.7564 35.5092L32.0774 35.8279L27.0684 33.601C27.0806 33.3331 26.9879 33.0709 26.8094 32.8682L28.8144 28.983C28.9286 29.013 29.0483 29.0167 29.1642 28.994C29.2802 28.9712 29.3892 28.9226 29.483 28.8517C29.5768 28.7809 29.6527 28.6898 29.705 28.5855C29.7572 28.4812 29.7844 28.3665 29.7844 28.2502L31.9154 27.837ZM28.3254 28.5374C28.4321 28.6128 28.5206 28.7106 28.5844 28.8236L26.5784 32.7413C26.4326 32.7158 26.2828 32.7256 26.1418 32.77C26.0008 32.8144 25.8729 32.892 25.7694 32.9961L21.2404 30.958C20.7097 30.8298 20.2132 30.591 19.7844 30.2577L28.3254 28.5374ZM16.7454 29.2377L18.4274 30L18.3624 30.2548L16.0984 30.6689V30.6393L16.7454 29.2377ZM18.3954 30.48L18.6544 30.7662L17.1984 33.9197L17.0694 33.8213L15.7754 31.8492L15.9684 30.957L18.3954 30.48ZM19.6894 30.5784L25.6414 33.2223C25.6795 33.5108 25.7671 33.7908 25.9004 34.0505L23.5064 38.5377C23.0164 39.482 22.7874 40.3692 21.5654 40.6033L18.5894 36.0492C18.0636 35.4973 17.6556 34.8475 17.3894 34.138L18.8454 30.8921C19.0021 30.9246 19.1651 30.9121 19.3147 30.8559C19.4644 30.7997 19.5945 30.7024 19.6894 30.5754V30.5784ZM15.4194 32.1393L15.2904 33.6039L13.1904 34.7508C13.1147 34.295 13.1369 33.8286 13.2554 33.3816L15.4194 32.1393ZM15.6784 32.2033C16.2461 32.8183 16.7151 33.5148 17.0694 34.2689L15.9044 36.8164H15.8404C15.5072 35.2992 15.4524 33.7356 15.6784 32.1993V32.2033ZM26.9034 33.8272L31.7884 35.9607L31.7564 36.0246L29.2684 37.2315L25.0264 39.1475L23.0204 40.0072L26.1254 34.1154C26.2691 34.1306 26.4144 34.1121 26.5494 34.0615C26.6844 34.0109 26.8054 33.9296 26.9024 33.8243L26.9034 33.8272ZM17.2034 34.5275C17.6636 34.9693 18.0261 35.4997 18.2684 36.0856L21.3414 40.7351L18.8504 41.6902C17.8239 40.8221 17.0157 39.732 16.4894 38.5052C16.1985 38.1154 16.0299 37.6504 16.0044 37.1675L17.2034 34.5275ZM38.9404 35.3557C38.2924 36 36.1174 36.6846 35.8994 37.5197L35.5434 37.3918L35.2524 37.5197V37.5511L35.7684 37.741C35.6224 39.003 34.2994 40.3308 33.6334 41.1836L33.5684 41.1492L33.3094 38.5062L33.0834 38.6046C33.1684 39.2311 33.4834 41.2544 33.2454 41.5987C32.6314 41.8938 32.0994 42.5666 31.4984 42.9364C30.0598 43.7496 28.4604 44.2491 26.8084 44.401C25.8701 44.5237 24.9171 44.4803 23.9944 44.2731L23.1214 42.9944L22.9274 43.0584V43.0918L23.5744 44.0754V44.1738H23.5384C23.1384 44.043 21.9384 43.5561 21.6944 43.5364L16.4864 45.2262L13.6724 45.9905C14.7024 50.0577 18.7524 53.0105 22.7294 54.239C25.2024 54.8769 27.8169 54.732 30.2014 53.8249C34.2014 52.1272 36.4364 48.4151 37.8014 44.1108C38.1921 42.7597 38.5053 41.388 38.7394 40.0023L38.9014 37.9957C39.0469 37.1214 39.0587 36.2306 38.9364 35.3528L38.9404 35.3557ZM26.9994 44.7797L26.7414 48.5705C26.6414 49.202 26.8414 49.9889 26.3534 50.2269C25.5114 50.7069 25.2344 49.861 25.1244 49.2079L24.7034 44.7492L26.9994 44.7797Z" fill="#0F355D"/>
<path d="M69.37 11.3853V15.7053H66.835V11.3853H64.99V21.8853H66.835V17.4603H69.37V21.8853H71.23V11.3853H69.37ZM75.6378 13.7553C73.9578 13.7553 72.9228 14.7303 72.8478 16.3353H74.6178C74.6928 15.7203 75.1128 15.4653 75.6078 15.4653C76.2678 15.4653 76.5078 15.9303 76.5078 16.7403V17.1303H75.5778C73.8378 17.1303 72.6228 17.9403 72.6228 19.6203C72.6228 21.0753 73.5528 22.0953 75.0078 22.0953C75.9078 22.0953 76.4628 21.6753 76.7628 21.1353L76.8678 21.8853H78.2928V16.7403C78.2928 14.8053 77.4378 13.7553 75.6378 13.7553ZM76.5078 19.4553C76.5078 20.1303 76.0878 20.5503 75.4278 20.5503C74.7528 20.5503 74.4228 20.1603 74.4228 19.6203C74.4228 18.9753 74.8578 18.6303 75.6078 18.6303H76.5078V19.4553ZM83.5771 13.9503L82.2571 18.5253L80.7871 13.9503H78.9421L81.5071 21.0753L81.2521 21.9753C81.0571 22.6353 80.8621 23.0103 80.3071 23.0103H79.7521V24.7203H80.6671C81.9271 24.7203 82.5421 23.6703 82.9321 22.2903L85.3921 13.9503H83.5771ZM90.246 21.8853H92.256L89.586 17.3103L91.881 13.9503H89.811L88.761 15.7353C88.521 16.1553 88.251 16.6353 87.981 17.1303V13.9503H86.226V21.8853H87.981V19.1703L88.416 18.7053L90.246 21.8853ZM95.2684 22.0803C97.0684 22.0803 98.1484 20.9703 98.1484 18.9903V16.8453C98.1484 14.8653 97.0684 13.7553 95.2684 13.7553C93.4834 13.7553 92.4034 14.8653 92.4034 16.8453V18.9903C92.4034 20.9703 93.4834 22.0803 95.2684 22.0803ZM95.2684 20.3553C94.5934 20.3553 94.2034 19.9353 94.2034 18.9903V16.8453C94.2034 15.8853 94.5934 15.4803 95.2684 15.4803C95.9584 15.4803 96.3484 15.8853 96.3484 16.8453V18.9903C96.3484 19.9353 95.9584 20.3553 95.2684 20.3553ZM103.815 17.6853C104.34 17.3253 104.625 16.7703 104.625 16.2003C104.625 14.7753 103.755 13.9503 102.12 13.9503H99.5854V21.8853H102.18C104.115 21.8853 105.03 21.0003 105.03 19.5753C105.03 18.7803 104.7 18.0303 103.815 17.6853ZM101.28 15.3753H101.985C102.57 15.3753 102.9 15.7203 102.9 16.2453C102.9 16.8303 102.57 17.1303 102 17.1303H101.28V15.3753ZM102.27 20.4303H101.28V18.5703H102.27C102.975 18.5703 103.29 18.8703 103.29 19.5003C103.29 20.1153 102.975 20.4303 102.27 20.4303ZM106.974 12.7203C107.559 12.7203 108.009 12.2403 108.009 11.6853C108.009 11.0853 107.559 10.6503 106.974 10.6503C106.374 10.6503 105.954 11.0853 105.954 11.6853C105.954 12.2703 106.374 12.7203 106.974 12.7203ZM106.089 21.8853H107.859V13.9503H106.089V21.8853ZM117.874 13.9503H112.579V21.8853H114.349V15.5853H116.104V21.8853H117.874V13.9503ZM123.348 13.9503L122.028 18.5253L120.558 13.9503H118.713L121.278 21.0753L121.023 21.9753C120.828 22.6353 120.633 23.0103 120.078 23.0103H119.523V24.7203H120.438C121.698 24.7203 122.313 23.6703 122.703 22.2903L125.163 13.9503H123.348ZM129.074 14.6103C128.519 14.6103 128.024 14.7753 127.649 15.0903V14.7753C127.649 13.6503 128.579 13.3503 129.344 13.1103C130.124 12.8553 130.694 12.5103 131.174 11.6853L129.929 10.6503C129.539 11.2203 129.299 11.3253 128.444 11.6403C126.929 12.2103 125.894 13.0653 125.894 14.9403V18.9903C125.894 20.9553 126.974 22.0653 128.744 22.0653C130.529 22.0653 131.609 20.9553 131.609 18.9903V17.6853C131.609 15.7203 130.574 14.6103 129.074 14.6103ZM129.809 18.9903C129.809 19.9353 129.419 20.3553 128.744 20.3553C128.069 20.3553 127.679 19.9353 127.679 18.9903V17.6853C127.679 16.7103 128.129 16.3353 128.759 16.3353C129.434 16.3353 129.809 16.7403 129.809 17.7153V18.9903ZM132.202 22.0203C133.852 22.0203 134.722 21.0303 134.947 18.9303C135.082 17.9553 135.157 16.3803 135.187 15.5853H136.642V21.8853H138.397V13.9503H133.492C133.447 15.5403 133.312 17.6553 133.207 18.6003C133.102 19.6953 132.937 20.3103 132.202 20.3103V22.0203ZM140.9 12.7203C141.485 12.7203 141.935 12.2403 141.935 11.6853C141.935 11.0853 141.485 10.6503 140.9 10.6503C140.3 10.6503 139.88 11.0853 139.88 11.6853C139.88 12.2703 140.3 12.7203 140.9 12.7203ZM140.015 21.8853H141.785V13.9503H140.015V21.8853ZM147.419 21.8853H149.429L146.759 17.3103L149.054 13.9503H146.984L145.934 15.7353C145.694 16.1553 145.424 16.6353 145.154 17.1303V13.9503H143.399V21.8853H145.154V19.1703L145.589 18.7053L147.419 21.8853ZM152.483 13.7553C150.803 13.7553 149.768 14.7303 149.693 16.3353H151.463C151.538 15.7203 151.958 15.4653 152.453 15.4653C153.113 15.4653 153.353 15.9303 153.353 16.7403V17.1303H152.423C150.683 17.1303 149.468 17.9403 149.468 19.6203C149.468 21.0753 150.398 22.0953 151.853 22.0953C152.753 22.0953 153.308 21.6753 153.608 21.1353L153.713 21.8853H155.138V16.7403C155.138 14.8053 154.283 13.7553 152.483 13.7553ZM153.353 19.4553C153.353 20.1303 152.933 20.5503 152.273 20.5503C151.598 20.5503 151.268 20.1603 151.268 19.6203C151.268 18.9753 151.703 18.6303 152.453 18.6303H153.353V19.4553ZM161.244 23.6553H162.939V20.2803H162.024V13.9503H160.254V20.2803H158.514V13.9503H156.744V21.8853H161.244V23.6553ZM164.865 12.7203C165.45 12.7203 165.9 12.2403 165.9 11.6853C165.9 11.0853 165.45 10.6503 164.865 10.6503C164.265 10.6503 163.845 11.0853 163.845 11.6853C163.845 12.2703 164.265 12.7203 164.865 12.7203ZM163.98 21.8853H165.75V13.9503H163.98V21.8853ZM167.379 12.5853C167.874 12.5853 168.189 12.2703 168.189 11.7753C168.189 11.2803 167.874 10.9653 167.379 10.9653C166.899 10.9653 166.569 11.2803 166.569 11.7753C166.569 12.2703 166.899 12.5853 167.379 12.5853ZM169.494 12.5853C169.974 12.5853 170.289 12.2703 170.289 11.7753C170.289 11.2803 169.974 10.9653 169.494 10.9653C168.999 10.9653 168.669 11.2803 168.669 11.7753C168.669 12.2703 168.999 12.5853 169.494 12.5853ZM167.529 21.8853H169.314V13.9503H167.529V21.8853ZM67.84 40.0653C69.865 40.0653 71.05 38.8953 71.125 36.7653H69.28C69.205 37.8153 68.755 38.2803 67.84 38.2803C67.06 38.2803 66.595 37.7853 66.595 36.7353V32.5353C66.595 31.4553 67.06 30.9603 67.825 30.9603C68.725 30.9603 69.175 31.4253 69.235 32.5053H71.08C70.99 30.3603 69.85 29.1753 67.84 29.1753C65.875 29.1753 64.69 30.3603 64.69 32.5353V36.7353C64.69 38.8953 65.89 40.0653 67.84 40.0653ZM76.1357 31.9503L74.8157 36.5253L73.3457 31.9503H71.5007L74.0657 39.0753L73.8107 39.9753C73.6157 40.6353 73.4207 41.0103 72.8657 41.0103H72.3107V42.7203H73.2257C74.4857 42.7203 75.1007 41.6703 75.4907 40.2903L77.9507 31.9503H76.1357ZM83.8846 31.9503L82.8946 34.3953C82.6396 35.0253 82.4146 35.6253 82.2346 36.2703H82.1896C82.0096 35.6253 81.7846 35.0253 81.5446 34.3953L80.5396 31.9503H78.7846V39.8853H80.4196V37.4253C80.4196 36.5703 80.3596 35.6253 80.3146 34.8903L80.4046 34.8603C80.6296 35.6253 80.8396 36.3603 81.0346 36.9453L81.4246 37.9803H83.0146L83.4046 36.9453C83.5846 36.3603 83.8096 35.6253 84.0196 34.8603L84.1096 34.8903C84.0796 35.6253 84.0196 36.5703 84.0196 37.4253V39.8853H85.6546V31.9503H83.8846ZM89.8461 40.0653C91.6011 40.0653 92.6661 38.9703 92.7111 37.1103H90.9261C90.8811 37.9503 90.5511 38.3703 89.8761 38.3703C89.2311 38.3703 88.8711 37.9503 88.8711 37.1103V34.6953C88.8711 33.8703 89.2311 33.4503 89.8761 33.4503C90.5061 33.4503 90.8511 33.8703 90.8811 34.6953H92.6661C92.6061 32.8503 91.6461 31.7553 89.8461 31.7553C88.1211 31.7553 87.0861 32.8503 87.0861 34.6953V37.1103C87.0861 38.9703 88.1211 40.0653 89.8461 40.0653ZM96.7675 34.5753H95.6425V31.9503H93.8725V39.8853H96.7675C98.3125 39.8853 99.3925 38.8053 99.3925 37.2003C99.3925 35.6253 98.3125 34.5753 96.7675 34.5753ZM96.5425 38.2953H95.6425V36.1503H96.5425C97.2025 36.1503 97.6075 36.5253 97.6075 37.2003C97.6075 37.8903 97.2025 38.2953 96.5425 38.2953ZM104.382 39.8853H106.392L103.722 35.3103L106.017 31.9503H103.947L102.897 33.7353C102.657 34.1553 102.387 34.6353 102.117 35.1303V31.9503H100.362V39.8853H102.117V37.1703L102.552 36.7053L104.382 39.8853ZM109.404 40.0803C111.204 40.0803 112.284 38.9703 112.284 36.9903V34.8453C112.284 32.8653 111.204 31.7553 109.404 31.7553C107.619 31.7553 106.539 32.8653 106.539 34.8453V36.9903C106.539 38.9703 107.619 40.0803 109.404 40.0803ZM109.404 38.3553C108.729 38.3553 108.339 37.9353 108.339 36.9903V34.8453C108.339 33.8853 108.729 33.4803 109.404 33.4803C110.094 33.4803 110.484 33.8853 110.484 34.8453V36.9903C110.484 37.9353 110.094 38.3553 109.404 38.3553ZM117.936 31.9353H113.721V39.8853H115.506V33.6303H117.936V31.9353ZM121.445 40.0803C123.245 40.0803 124.325 38.9703 124.325 36.9903V34.8453C124.325 32.8653 123.245 31.7553 121.445 31.7553C119.66 31.7553 118.58 32.8653 118.58 34.8453V36.9903C118.58 38.9703 119.66 40.0803 121.445 40.0803ZM121.445 38.3553C120.77 38.3553 120.38 37.9353 120.38 36.9903V34.8453C120.38 33.8853 120.77 33.4803 121.445 33.4803C122.135 33.4803 122.525 33.8853 122.525 34.8453V36.9903C122.525 37.9353 122.135 38.3553 121.445 38.3553ZM128.058 41.6553H129.753V39.8853H133.623V41.6553H135.318V38.2803H134.403V31.9503H129.513C129.483 33.2853 129.408 34.6203 129.333 35.9403C129.273 36.8253 129.123 37.7253 128.673 38.2803H128.058V41.6553ZM130.698 38.2803C130.908 37.7103 131.013 37.0803 131.058 36.3753C131.133 35.4453 131.163 34.5153 131.178 33.5853H132.648V38.2803H130.698ZM140.045 37.3803C139.91 38.0703 139.64 38.3703 138.905 38.3703C138.245 38.3703 137.87 37.9503 137.87 37.0053V36.5403H141.725V34.7703C141.725 32.8653 140.66 31.7553 138.89 31.7553C137.15 31.7553 136.1 32.8653 136.1 34.7703V37.0053C136.1 38.9253 137.15 40.0653 138.875 40.0653C140.615 40.0653 141.68 39.0753 141.83 37.3803H140.045ZM138.905 33.4053C139.595 33.4053 139.97 33.8253 139.97 34.7553V35.2803H137.87V34.7553C137.87 33.8253 138.245 33.4053 138.905 33.4053ZM146.196 31.7703C145.521 31.7703 144.846 32.1753 144.456 32.6703L144.351 31.9353H143.121V42.5853H144.846V39.5553C145.206 39.8853 145.686 40.0803 146.196 40.0803C147.726 40.0803 148.746 38.8953 148.746 36.9903V34.8753C148.746 32.9703 147.726 31.7703 146.196 31.7703ZM146.946 36.9903C146.946 37.9503 146.586 38.4003 145.926 38.4003C145.236 38.4003 144.846 37.8903 144.846 36.9903V34.8753C144.846 33.9303 145.266 33.4503 145.926 33.4503C146.571 33.4503 146.946 33.9153 146.946 34.8753V36.9903ZM156.955 39.8853H158.905L156.31 35.3253L158.59 31.9503H156.565L155.575 33.6753C155.32 34.1103 155.05 34.6053 154.78 35.1003V31.9503H153.085V35.1153C152.815 34.6203 152.545 34.1253 152.29 33.6753L151.3 31.9503H149.275L151.555 35.3253L148.945 39.8853H150.91L152.665 36.6903L153.085 37.1403V39.8853H154.78V37.1403L155.2 36.6903L156.955 39.8853ZM161.976 31.7553C160.296 31.7553 159.261 32.7303 159.186 34.3353H160.956C161.031 33.7203 161.451 33.4653 161.946 33.4653C162.606 33.4653 162.846 33.9303 162.846 34.7403V35.1303H161.916C160.176 35.1303 158.961 35.9403 158.961 37.6203C158.961 39.0753 159.891 40.0953 161.346 40.0953C162.246 40.0953 162.801 39.6753 163.101 39.1353L163.206 39.8853H164.631V34.7403C164.631 32.8053 163.776 31.7553 161.976 31.7553ZM162.846 37.4553C162.846 38.1303 162.426 38.5503 161.766 38.5503C161.091 38.5503 160.761 38.1603 160.761 37.6203C160.761 36.9753 161.196 36.6303 161.946 36.6303H162.846V37.4553ZM170.466 35.6853C170.991 35.3253 171.276 34.7703 171.276 34.2003C171.276 32.7753 170.406 31.9503 168.771 31.9503H166.236V39.8853H168.831C170.766 39.8853 171.681 39.0003 171.681 37.5753C171.681 36.7803 171.351 36.0303 170.466 35.6853ZM167.931 33.3753H168.636C169.221 33.3753 169.551 33.7203 169.551 34.2453C169.551 34.8303 169.221 35.1303 168.651 35.1303H167.931V33.3753ZM168.921 38.4303H167.931V36.5703H168.921C169.626 36.5703 169.941 36.8703 169.941 37.5003C169.941 38.1153 169.626 38.4303 168.921 38.4303ZM176.265 31.9503V35.0403H174.51V31.9503H172.74V39.8853H174.51V36.6753H176.265V39.8853H178.035V31.9503H176.265ZM182.339 40.0803C184.139 40.0803 185.219 38.9703 185.219 36.9903V34.8453C185.219 32.8653 184.139 31.7553 182.339 31.7553C180.554 31.7553 179.474 32.8653 179.474 34.8453V36.9903C179.474 38.9703 180.554 40.0803 182.339 40.0803ZM182.339 38.3553C181.664 38.3553 181.274 37.9353 181.274 36.9903V34.8453C181.274 33.8853 181.664 33.4803 182.339 33.4803C183.029 33.4803 183.419 33.8853 183.419 34.8453V36.9903C183.419 37.9353 183.029 38.3553 182.339 38.3553ZM190.871 31.9353H186.656V39.8853H188.441V33.6303H190.871V31.9353ZM194.38 40.0803C196.18 40.0803 197.26 38.9703 197.26 36.9903V34.8453C197.26 32.8653 196.18 31.7553 194.38 31.7553C192.595 31.7553 191.515 32.8653 191.515 34.8453V36.9903C191.515 38.9703 192.595 40.0803 194.38 40.0803ZM194.38 38.3553C193.705 38.3553 193.315 37.9353 193.315 36.9903V34.8453C193.315 33.8853 193.705 33.4803 194.38 33.4803C195.07 33.4803 195.46 33.8853 195.46 34.8453V36.9903C195.46 37.9353 195.07 38.3553 194.38 38.3553ZM68.665 49.9503L67.345 54.5253L65.875 49.9503H64.03L66.595 57.0753L66.34 57.9753C66.145 58.6353 65.95 59.0103 65.395 59.0103H64.84V60.7203H65.755C67.015 60.7203 67.63 59.6703 68.02 58.2903L70.48 49.9503H68.665ZM74.8389 49.9503V53.0403H73.0839V49.9503H71.3139V57.8853H73.0839V54.6753H74.8389V57.8853H76.6089V49.9503H74.8389ZM79.113 48.7203C79.698 48.7203 80.148 48.2403 80.148 47.6853C80.148 47.0853 79.698 46.6503 79.113 46.6503C78.513 46.6503 78.093 47.0853 78.093 47.6853C78.093 48.2703 78.513 48.7203 79.113 48.7203ZM78.228 57.8853H79.998V49.9503H78.228V57.8853ZM85.8418 53.6853C86.3668 53.3253 86.6518 52.7703 86.6518 52.2003C86.6518 50.7753 85.7818 49.9503 84.1468 49.9503H81.6118V57.8853H84.2068C86.1418 57.8853 87.0568 57.0003 87.0568 55.5753C87.0568 54.7803 86.7268 54.0303 85.8418 53.6853ZM83.3068 51.3753H84.0118C84.5968 51.3753 84.9268 51.7203 84.9268 52.2453C84.9268 52.8303 84.5968 53.1303 84.0268 53.1303H83.3068V51.3753ZM84.2968 56.4303H83.3068V54.5703H84.2968C85.0018 54.5703 85.3168 54.8703 85.3168 55.5003C85.3168 56.1153 85.0018 56.4303 84.2968 56.4303ZM91.8807 55.3803C91.7457 56.0703 91.4757 56.3703 90.7407 56.3703C90.0807 56.3703 89.7057 55.9503 89.7057 55.0053V54.5403H93.5607V52.7703C93.5607 50.8653 92.4957 49.7553 90.7257 49.7553C88.9857 49.7553 87.9357 50.8653 87.9357 52.7703V55.0053C87.9357 56.9253 88.9857 58.0653 90.7107 58.0653C92.4507 58.0653 93.5157 57.0753 93.6657 55.3803H91.8807ZM90.7407 51.4053C91.4307 51.4053 91.8057 51.8253 91.8057 52.7553V53.2803H89.7057V52.7553C89.7057 51.8253 90.0807 51.4053 90.7407 51.4053ZM98.0315 49.7703C97.3565 49.7703 96.6815 50.1753 96.2915 50.6703L96.1865 49.9353H94.9565V60.5853H96.6815V57.5553C97.0415 57.8853 97.5215 58.0803 98.0315 58.0803C99.5615 58.0803 100.581 56.8953 100.581 54.9903V52.8753C100.581 50.9703 99.5615 49.7703 98.0315 49.7703ZM98.7815 54.9903C98.7815 55.9503 98.4215 56.4003 97.7615 56.4003C97.0715 56.4003 96.6815 55.8903 96.6815 54.9903V52.8753C96.6815 51.9303 97.1015 51.4503 97.7615 51.4503C98.4065 51.4503 98.7815 51.9153 98.7815 52.8753V54.9903ZM104.582 58.0653C106.337 58.0653 107.402 56.9703 107.447 55.1103H105.662C105.617 55.9503 105.287 56.3703 104.612 56.3703C103.967 56.3703 103.607 55.9503 103.607 55.1103V52.6953C103.607 51.8703 103.967 51.4503 104.612 51.4503C105.242 51.4503 105.587 51.8703 105.617 52.6953H107.402C107.342 50.8503 106.382 49.7553 104.582 49.7553C102.857 49.7553 101.822 50.8503 101.822 52.6953V55.1103C101.822 56.9703 102.857 58.0653 104.582 58.0653ZM108.609 57.8853H110.409L111.399 55.7253C111.759 54.9603 112.359 53.0553 112.434 52.7253L112.479 52.7403C112.419 53.6253 112.404 54.8103 112.404 55.5453V57.8853H114.099V49.9503H112.314L111.324 52.2453C111.009 53.0853 110.454 54.6453 110.319 55.0803L110.289 55.0653C110.289 54.0603 110.304 53.2953 110.304 52.6203V49.9503H108.609V57.8853ZM120.228 49.9503H115.023V51.6303H116.748V57.8853H118.518V51.6303H120.228V49.9503ZM124.752 55.3803C124.617 56.0703 124.347 56.3703 123.612 56.3703C122.952 56.3703 122.577 55.9503 122.577 55.0053V54.5403H126.432V52.7703C126.432 50.8653 125.367 49.7553 123.597 49.7553C121.857 49.7553 120.807 50.8653 120.807 52.7703V55.0053C120.807 56.9253 121.857 58.0653 123.582 58.0653C125.322 58.0653 126.387 57.0753 126.537 55.3803H124.752ZM123.612 51.4053C124.302 51.4053 124.677 51.8253 124.677 52.7553V53.2803H122.577V52.7553C122.577 51.8253 122.952 51.4053 123.612 51.4053ZM132.343 49.9503H127.138V51.6303H128.863V57.8853H130.633V51.6303H132.343V49.9503ZM137.264 49.9503L135.944 54.5253L134.474 49.9503H132.629L135.194 57.0753L134.939 57.9753C134.744 58.6353 134.549 59.0103 133.994 59.0103H133.439V60.7203H134.354C135.614 60.7203 136.229 59.6703 136.619 58.2903L139.079 49.9503H137.264Z" fill="#0F355D"/>
</svg>
