<svg width="200" height="61" viewBox="0 0 200 61" fill="none" xmlns="http://www.w3.org/2000/svg">
<path fill-rule="evenodd" clip-rule="evenodd" d="M33.4374 0H33.8254C33.3825 0.495544 33.0121 1.05142 32.7254 1.651C31.6114 4.477 32.4464 6.34 29.8144 7.933C29.2111 8.35382 28.5088 8.61055 27.7764 8.678C27.9414 7.958 28.8694 7.055 28.3264 6.023L27.2594 6.541C25.0694 7.157 24.0594 6.498 23.4424 8.841C21.7884 8.525 19.8704 6.379 21.2424 4.535C22.2284 3.21 24.2114 3.278 25.9974 2.722C26.5454 2.551 26.9204 2.091 27.4204 1.977C27.8394 2.999 27.0914 3.677 26.8384 4.405C28.8504 3.897 29.3994 2.579 30.7524 1.491C31.5862 0.891042 32.4873 0.390644 33.4374 0ZM19.3374 9.714L29.1064 9.746C29.7184 9.838 31.9634 9.54 32.2764 9.811C32.3986 10.3778 32.3877 10.9652 32.2444 11.527C31.8941 11.4977 31.5415 11.542 31.2094 11.657C30.4854 12.141 30.0094 14.057 29.1394 14.28L24.0604 14.248C23.479 14.3339 22.8868 14.3119 22.3134 14.183C21.5074 13.663 21.1274 11.866 20.1784 11.496L19.3374 11.464V9.714ZM1.34838 13.082H16.0344L16.0024 14.895C12.5024 15.131 12.8644 18.778 12.8644 22.504L12.8964 35.229C12.8964 38.142 12.8134 41.161 12.9964 43.874H12.9284L11.5374 44.263C9.9302 44.8211 8.25444 45.1576 6.55638 45.263L6.13538 44.063C5.91968 43.2323 5.75768 42.3885 5.65038 41.537C5.46959 39.6211 5.43616 37.6941 5.55038 35.773L5.52138 25.418C5.52138 23.163 5.93538 17.954 5.13338 16.578C4.43338 15.385 3.14838 14.839 1.34838 14.765V13.082ZM35.1194 13.082H45.7614L45.7294 14.992C44.9426 14.9804 44.1724 15.2185 43.5294 15.672C41.6294 16.931 42.0734 19.208 42.0734 22.245C42.0627 24.9863 42.052 27.728 42.0414 30.47L39.0004 32.413H38.9684V21.371C38.9684 19.657 39.1684 17.551 38.4834 16.514C38.092 16.0022 37.5799 15.5953 36.9929 15.3297C36.4059 15.0641 35.7622 14.9481 35.1194 14.992V13.082ZM28.3264 15.251L27.7114 23.864C26.518 23.7027 25.3071 23.7247 24.1204 23.929L23.4084 15.251H28.3254H28.3264ZM43.6264 22.8C46.4154 22.752 49.1214 23.237 48.3814 26.427L48.0254 27.527C46.9764 29.934 44.1424 32.377 42.0084 33.744C42.5164 45.032 38.8264 51.955 31.9484 55.957C28.2323 57.953 23.9237 58.5505 19.8048 57.6409C15.6858 56.7314 12.0294 54.3752 9.49938 51L7.55838 47.762C4.89238 47.812 0.866378 47.244 0.118378 45.528C-0.00600944 45.0919 -0.0327724 44.6337 0.0399918 44.186C0.112756 43.7384 0.283259 43.3123 0.539378 42.938C1.73679 41.0432 3.35247 39.4481 5.26238 38.275H5.29438C5.28371 38.7497 5.27305 39.2247 5.26238 39.7C3.77531 40.6239 2.4974 41.848 1.51038 43.294C1.25625 43.6022 1.13119 43.9968 1.16139 44.3951C1.19158 44.7934 1.37469 45.1646 1.67238 45.431C3.1712 46.0278 4.80644 46.196 6.39538 45.917C9.61338 45.4382 12.7919 44.724 15.9054 43.78C24.8592 41.0892 33.3551 37.0611 41.1054 31.832C42.8354 30.612 46.6294 28.181 47.2194 26.068C47.9364 23.498 44.1374 23.76 42.3674 24.158V22.958L43.6264 22.8ZM38.4834 23.771C38.5935 24.1715 38.6156 24.5911 38.5484 25.001C37.1738 25.2627 35.8298 25.6648 34.5374 26.201C34.1059 26.4545 33.6148 26.5887 33.1144 26.59L32.1444 25.942V25.9L36.1234 24.443L38.4834 23.771ZM28.3584 28.786L19.7214 30.437L19.4624 30.081L21.0474 26.581C21.1753 26.0293 21.4179 25.5107 21.7594 25.059L23.0534 24.638C25.5965 23.9331 28.3089 24.1747 30.6874 25.318L29.2314 28.103C29.1273 28.0711 29.0171 28.0648 28.9102 28.0847C28.8032 28.1045 28.7025 28.1499 28.6168 28.2169C28.5311 28.284 28.4629 28.3707 28.4179 28.4698C28.3729 28.5689 28.3525 28.6773 28.3584 28.786ZM21.2424 25.321C21.1576 25.7983 20.9699 26.2515 20.6924 26.649L19.2364 29.984C18.988 29.9945 18.7497 30.0854 18.5574 30.243L16.8754 29.5L16.9074 29.4C17.5491 28.4241 18.2977 27.5229 19.1394 26.713C19.7874 26.2 20.5834 25.849 21.2424 25.321ZM30.8814 25.483C31.2587 25.5459 31.5959 25.7555 31.8194 26.066L32.0134 28.041L29.6844 28.494L29.4904 28.2L30.8814 25.483ZM32.1104 26.228C32.7594 26.5613 33.3151 27.0511 33.7274 27.653C33.2671 27.8528 32.7729 27.9628 32.2714 27.977L32.1104 26.228ZM33.9214 27.912C35.0394 28.512 36.4294 32.24 36.4444 34.161L33.0154 35.942L32.4684 30.178C32.3616 29.5362 32.328 28.8844 32.3684 28.235L33.9214 27.912ZM31.9154 28.301H32.0444L32.7564 36.101L32.0774 36.425L27.0684 34.161C27.0806 33.8887 26.9879 33.622 26.8094 33.416L28.8144 29.466C28.9286 29.4965 29.0483 29.5004 29.1642 29.4772C29.2802 29.4541 29.3892 29.4046 29.483 29.3326C29.5768 29.2606 29.6527 29.168 29.705 29.0619C29.7572 28.9559 29.7844 28.8392 29.7844 28.721L31.9154 28.301ZM28.3254 29.013C28.4321 29.0897 28.5206 29.1891 28.5844 29.304L26.5784 33.287C26.4326 33.261 26.2828 33.271 26.1418 33.3162C26.0008 33.3613 25.8729 33.4402 25.7694 33.546L21.2404 31.474C20.7097 31.3436 20.2132 31.1008 19.7844 30.762L28.3254 29.013ZM16.7454 29.725L18.4274 30.5L18.3624 30.759L16.0984 31.18V31.15L16.7454 29.725ZM18.3954 30.988L18.6544 31.279L17.1984 34.485L17.0694 34.385L15.7754 32.38L15.9684 31.473L18.3954 30.988ZM19.6894 31.088L25.6414 33.776C25.6795 34.0693 25.7671 34.354 25.9004 34.618L23.5064 39.18C23.0164 40.14 22.7874 41.042 21.5654 41.28L18.5894 36.65C18.0636 36.089 17.6556 35.4283 17.3894 34.707L18.8454 31.407C19.0021 31.4401 19.1651 31.4273 19.3147 31.3702C19.4644 31.3131 19.5945 31.2141 19.6894 31.085V31.088ZM15.4194 32.675L15.2904 34.164L13.1904 35.33C13.1147 34.8665 13.1369 34.3924 13.2554 33.938L15.4194 32.675ZM15.6784 32.74C16.2461 33.3652 16.7151 34.0734 17.0694 34.84L15.9044 37.43H15.8404C15.5072 35.8875 15.4524 34.2978 15.6784 32.736V32.74ZM26.9034 34.391L31.7884 36.56L31.7564 36.625L29.2684 37.852L25.0264 39.8L23.0204 40.674L26.1254 34.684C26.2691 34.6994 26.4144 34.6807 26.5494 34.6292C26.6844 34.5778 26.8054 34.4951 26.9024 34.388L26.9034 34.391ZM17.2034 35.103C17.6636 35.5521 18.0261 36.0914 18.2684 36.687L21.3414 41.414L18.8504 42.385C17.8239 41.5025 17.0157 40.3942 16.4894 39.147C16.1985 38.7507 16.0299 38.2779 16.0044 37.787L17.2034 35.103ZM38.9404 35.945C38.2924 36.6 36.1174 37.296 35.8994 38.145L35.5434 38.015L35.2524 38.145V38.177L35.7684 38.37C35.6224 39.653 34.2994 41.003 33.6334 41.87L33.5684 41.835L33.3094 39.148L33.0834 39.248C33.1684 39.885 33.4834 41.942 33.2454 42.292C32.6314 42.592 32.0994 43.276 31.4984 43.652C30.0598 44.4788 28.4604 44.9866 26.8084 45.141C25.8701 45.2657 24.9171 45.2217 23.9944 45.011L23.1214 43.711L22.9274 43.776V43.81L23.5744 44.81V44.91H23.5384C23.1384 44.777 21.9384 44.282 21.6944 44.262L16.4864 45.98L13.6724 46.757C14.7024 50.892 18.7524 53.894 22.7294 55.143C25.2024 55.7915 27.8169 55.6442 30.2014 54.722C34.2014 52.996 36.4364 49.222 37.8014 44.846C38.1921 43.4724 38.5053 42.0778 38.7394 40.669L38.9014 38.629C39.0469 37.7401 39.0587 36.8344 38.9364 35.942L38.9404 35.945ZM26.9994 45.526L26.7414 49.38C26.6414 50.022 26.8414 50.822 26.3534 51.064C25.5114 51.552 25.2344 50.692 25.1244 50.028L24.7034 45.495L26.9994 45.526Z" fill="#0F355D"/>
<path d="M69.37 11.5V15.82H66.835V11.5H64.99V22H66.835V17.575H69.37V22H71.23V11.5H69.37ZM75.6378 13.87C73.9578 13.87 72.9228 14.845 72.8478 16.45H74.6178C74.6928 15.835 75.1128 15.58 75.6078 15.58C76.2678 15.58 76.5078 16.045 76.5078 16.855V17.245H75.5778C73.8378 17.245 72.6228 18.055 72.6228 19.735C72.6228 21.19 73.5528 22.21 75.0078 22.21C75.9078 22.21 76.4628 21.79 76.7628 21.25L76.8678 22H78.2928V16.855C78.2928 14.92 77.4378 13.87 75.6378 13.87ZM76.5078 19.57C76.5078 20.245 76.0878 20.665 75.4278 20.665C74.7528 20.665 74.4228 20.275 74.4228 19.735C74.4228 19.09 74.8578 18.745 75.6078 18.745H76.5078V19.57ZM83.5771 14.065L82.2571 18.64L80.7871 14.065H78.9421L81.5071 21.19L81.2521 22.09C81.0571 22.75 80.8621 23.125 80.3071 23.125H79.7521V24.835H80.6671C81.9271 24.835 82.5421 23.785 82.9321 22.405L85.3921 14.065H83.5771ZM90.246 22H92.256L89.586 17.425L91.881 14.065H89.811L88.761 15.85C88.521 16.27 88.251 16.75 87.981 17.245V14.065H86.226V22H87.981V19.285L88.416 18.82L90.246 22ZM95.2684 22.195C97.0684 22.195 98.1484 21.085 98.1484 19.105V16.96C98.1484 14.98 97.0684 13.87 95.2684 13.87C93.4834 13.87 92.4034 14.98 92.4034 16.96V19.105C92.4034 21.085 93.4834 22.195 95.2684 22.195ZM95.2684 20.47C94.5934 20.47 94.2034 20.05 94.2034 19.105V16.96C94.2034 16 94.5934 15.595 95.2684 15.595C95.9584 15.595 96.3484 16 96.3484 16.96V19.105C96.3484 20.05 95.9584 20.47 95.2684 20.47ZM103.815 17.8C104.34 17.44 104.625 16.885 104.625 16.315C104.625 14.89 103.755 14.065 102.12 14.065H99.5854V22H102.18C104.115 22 105.03 21.115 105.03 19.69C105.03 18.895 104.7 18.145 103.815 17.8ZM101.28 15.49H101.985C102.57 15.49 102.9 15.835 102.9 16.36C102.9 16.945 102.57 17.245 102 17.245H101.28V15.49ZM102.27 20.545H101.28V18.685H102.27C102.975 18.685 103.29 18.985 103.29 19.615C103.29 20.23 102.975 20.545 102.27 20.545ZM106.974 12.835C107.559 12.835 108.009 12.355 108.009 11.8C108.009 11.2 107.559 10.765 106.974 10.765C106.374 10.765 105.954 11.2 105.954 11.8C105.954 12.385 106.374 12.835 106.974 12.835ZM106.089 22H107.859V14.065H106.089V22ZM117.874 14.065H112.579V22H114.349V15.7H116.104V22H117.874V14.065ZM123.348 14.065L122.028 18.64L120.558 14.065H118.713L121.278 21.19L121.023 22.09C120.828 22.75 120.633 23.125 120.078 23.125H119.523V24.835H120.438C121.698 24.835 122.313 23.785 122.703 22.405L125.163 14.065H123.348ZM129.074 14.725C128.519 14.725 128.024 14.89 127.649 15.205V14.89C127.649 13.765 128.579 13.465 129.344 13.225C130.124 12.97 130.694 12.625 131.174 11.8L129.929 10.765C129.539 11.335 129.299 11.44 128.444 11.755C126.929 12.325 125.894 13.18 125.894 15.055V19.105C125.894 21.07 126.974 22.18 128.744 22.18C130.529 22.18 131.609 21.07 131.609 19.105V17.8C131.609 15.835 130.574 14.725 129.074 14.725ZM129.809 19.105C129.809 20.05 129.419 20.47 128.744 20.47C128.069 20.47 127.679 20.05 127.679 19.105V17.8C127.679 16.825 128.129 16.45 128.759 16.45C129.434 16.45 129.809 16.855 129.809 17.83V19.105ZM132.202 22.135C133.852 22.135 134.722 21.145 134.947 19.045C135.082 18.07 135.157 16.495 135.187 15.7H136.642V22H138.397V14.065H133.492C133.447 15.655 133.312 17.77 133.207 18.715C133.102 19.81 132.937 20.425 132.202 20.425V22.135ZM140.9 12.835C141.485 12.835 141.935 12.355 141.935 11.8C141.935 11.2 141.485 10.765 140.9 10.765C140.3 10.765 139.88 11.2 139.88 11.8C139.88 12.385 140.3 12.835 140.9 12.835ZM140.015 22H141.785V14.065H140.015V22ZM147.419 22H149.429L146.759 17.425L149.054 14.065H146.984L145.934 15.85C145.694 16.27 145.424 16.75 145.154 17.245V14.065H143.399V22H145.154V19.285L145.589 18.82L147.419 22ZM152.483 13.87C150.803 13.87 149.768 14.845 149.693 16.45H151.463C151.538 15.835 151.958 15.58 152.453 15.58C153.113 15.58 153.353 16.045 153.353 16.855V17.245H152.423C150.683 17.245 149.468 18.055 149.468 19.735C149.468 21.19 150.398 22.21 151.853 22.21C152.753 22.21 153.308 21.79 153.608 21.25L153.713 22H155.138V16.855C155.138 14.92 154.283 13.87 152.483 13.87ZM153.353 19.57C153.353 20.245 152.933 20.665 152.273 20.665C151.598 20.665 151.268 20.275 151.268 19.735C151.268 19.09 151.703 18.745 152.453 18.745H153.353V19.57ZM161.244 23.77H162.939V20.395H162.024V14.065H160.254V20.395H158.514V14.065H156.744V22H161.244V23.77ZM164.865 12.835C165.45 12.835 165.9 12.355 165.9 11.8C165.9 11.2 165.45 10.765 164.865 10.765C164.265 10.765 163.845 11.2 163.845 11.8C163.845 12.385 164.265 12.835 164.865 12.835ZM163.98 22H165.75V14.065H163.98V22ZM167.379 12.7C167.874 12.7 168.189 12.385 168.189 11.89C168.189 11.395 167.874 11.08 167.379 11.08C166.899 11.08 166.569 11.395 166.569 11.89C166.569 12.385 166.899 12.7 167.379 12.7ZM169.494 12.7C169.974 12.7 170.289 12.385 170.289 11.89C170.289 11.395 169.974 11.08 169.494 11.08C168.999 11.08 168.669 11.395 168.669 11.89C168.669 12.385 168.999 12.7 169.494 12.7ZM167.529 22H169.314V14.065H167.529V22ZM67.84 40.18C69.865 40.18 71.05 39.01 71.125 36.88H69.28C69.205 37.93 68.755 38.395 67.84 38.395C67.06 38.395 66.595 37.9 66.595 36.85V32.65C66.595 31.57 67.06 31.075 67.825 31.075C68.725 31.075 69.175 31.54 69.235 32.62H71.08C70.99 30.475 69.85 29.29 67.84 29.29C65.875 29.29 64.69 30.475 64.69 32.65V36.85C64.69 39.01 65.89 40.18 67.84 40.18ZM76.1357 32.065L74.8157 36.64L73.3457 32.065H71.5007L74.0657 39.19L73.8107 40.09C73.6157 40.75 73.4207 41.125 72.8657 41.125H72.3107V42.835H73.2257C74.4857 42.835 75.1007 41.785 75.4907 40.405L77.9507 32.065H76.1357ZM83.8846 32.065L82.8946 34.51C82.6396 35.14 82.4146 35.74 82.2346 36.385H82.1896C82.0096 35.74 81.7846 35.14 81.5446 34.51L80.5396 32.065H78.7846V40H80.4196V37.54C80.4196 36.685 80.3596 35.74 80.3146 35.005L80.4046 34.975C80.6296 35.74 80.8396 36.475 81.0346 37.06L81.4246 38.095H83.0146L83.4046 37.06C83.5846 36.475 83.8096 35.74 84.0196 34.975L84.1096 35.005C84.0796 35.74 84.0196 36.685 84.0196 37.54V40H85.6546V32.065H83.8846ZM89.8461 40.18C91.6011 40.18 92.6661 39.085 92.7111 37.225H90.9261C90.8811 38.065 90.5511 38.485 89.8761 38.485C89.2311 38.485 88.8711 38.065 88.8711 37.225V34.81C88.8711 33.985 89.2311 33.565 89.8761 33.565C90.5061 33.565 90.8511 33.985 90.8811 34.81H92.6661C92.6061 32.965 91.6461 31.87 89.8461 31.87C88.1211 31.87 87.0861 32.965 87.0861 34.81V37.225C87.0861 39.085 88.1211 40.18 89.8461 40.18ZM96.7675 34.69H95.6425V32.065H93.8725V40H96.7675C98.3125 40 99.3925 38.92 99.3925 37.315C99.3925 35.74 98.3125 34.69 96.7675 34.69ZM96.5425 38.41H95.6425V36.265H96.5425C97.2025 36.265 97.6075 36.64 97.6075 37.315C97.6075 38.005 97.2025 38.41 96.5425 38.41ZM104.382 40H106.392L103.722 35.425L106.017 32.065H103.947L102.897 33.85C102.657 34.27 102.387 34.75 102.117 35.245V32.065H100.362V40H102.117V37.285L102.552 36.82L104.382 40ZM109.404 40.195C111.204 40.195 112.284 39.085 112.284 37.105V34.96C112.284 32.98 111.204 31.87 109.404 31.87C107.619 31.87 106.539 32.98 106.539 34.96V37.105C106.539 39.085 107.619 40.195 109.404 40.195ZM109.404 38.47C108.729 38.47 108.339 38.05 108.339 37.105V34.96C108.339 34 108.729 33.595 109.404 33.595C110.094 33.595 110.484 34 110.484 34.96V37.105C110.484 38.05 110.094 38.47 109.404 38.47ZM117.936 32.05H113.721V40H115.506V33.745H117.936V32.05ZM121.445 40.195C123.245 40.195 124.325 39.085 124.325 37.105V34.96C124.325 32.98 123.245 31.87 121.445 31.87C119.66 31.87 118.58 32.98 118.58 34.96V37.105C118.58 39.085 119.66 40.195 121.445 40.195ZM121.445 38.47C120.77 38.47 120.38 38.05 120.38 37.105V34.96C120.38 34 120.77 33.595 121.445 33.595C122.135 33.595 122.525 34 122.525 34.96V37.105C122.525 38.05 122.135 38.47 121.445 38.47ZM135.573 38.275V29.5H130.173L129.993 34.195C129.933 35.725 129.633 37.36 128.778 38.275H128.133V41.77H129.948V40H134.703V41.77H136.518V38.275H135.573ZM133.743 38.275H130.938C131.463 37.33 131.718 36.1 131.763 34.72L131.898 31.24H133.743V38.275ZM141.304 37.495C141.169 38.185 140.899 38.485 140.164 38.485C139.504 38.485 139.129 38.065 139.129 37.12V36.655H142.984V34.885C142.984 32.98 141.919 31.87 140.149 31.87C138.409 31.87 137.359 32.98 137.359 34.885V37.12C137.359 39.04 138.409 40.18 140.134 40.18C141.874 40.18 142.939 39.19 143.089 37.495H141.304ZM140.164 33.52C140.854 33.52 141.229 33.94 141.229 34.87V35.395H139.129V34.87C139.129 33.94 139.504 33.52 140.164 33.52ZM147.455 31.885C146.78 31.885 146.105 32.29 145.715 32.785L145.61 32.05H144.38V42.7H146.105V39.67C146.465 40 146.945 40.195 147.455 40.195C148.985 40.195 150.005 39.01 150.005 37.105V34.99C150.005 33.085 148.985 31.885 147.455 31.885ZM148.205 37.105C148.205 38.065 147.845 38.515 147.185 38.515C146.495 38.515 146.105 38.005 146.105 37.105V34.99C146.105 34.045 146.525 33.565 147.185 33.565C147.83 33.565 148.205 34.03 148.205 34.99V37.105ZM158.214 40H160.164L157.569 35.44L159.849 32.065H157.824L156.834 33.79C156.579 34.225 156.309 34.72 156.039 35.215V32.065H154.344V35.23C154.074 34.735 153.804 34.24 153.549 33.79L152.559 32.065H150.534L152.814 35.44L150.204 40H152.169L153.924 36.805L154.344 37.255V40H156.039V37.255L156.459 36.805L158.214 40ZM163.235 31.87C161.555 31.87 160.52 32.845 160.445 34.45H162.215C162.29 33.835 162.71 33.58 163.205 33.58C163.865 33.58 164.105 34.045 164.105 34.855V35.245H163.175C161.435 35.245 160.22 36.055 160.22 37.735C160.22 39.19 161.15 40.21 162.605 40.21C163.505 40.21 164.06 39.79 164.36 39.25L164.465 40H165.89V34.855C165.89 32.92 165.035 31.87 163.235 31.87ZM164.105 37.57C164.105 38.245 163.685 38.665 163.025 38.665C162.35 38.665 162.02 38.275 162.02 37.735C162.02 37.09 162.455 36.745 163.205 36.745H164.105V37.57ZM171.726 35.8C172.251 35.44 172.536 34.885 172.536 34.315C172.536 32.89 171.666 32.065 170.031 32.065H167.496V40H170.091C172.026 40 172.941 39.115 172.941 37.69C172.941 36.895 172.611 36.145 171.726 35.8ZM169.191 33.49H169.896C170.481 33.49 170.811 33.835 170.811 34.36C170.811 34.945 170.481 35.245 169.911 35.245H169.191V33.49ZM170.181 38.545H169.191V36.685H170.181C170.886 36.685 171.201 36.985 171.201 37.615C171.201 38.23 170.886 38.545 170.181 38.545ZM177.524 32.065V35.155H175.769V32.065H173.999V40H175.769V36.79H177.524V40H179.294V32.065H177.524ZM183.599 40.195C185.399 40.195 186.479 39.085 186.479 37.105V34.96C186.479 32.98 185.399 31.87 183.599 31.87C181.814 31.87 180.734 32.98 180.734 34.96V37.105C180.734 39.085 181.814 40.195 183.599 40.195ZM183.599 38.47C182.924 38.47 182.534 38.05 182.534 37.105V34.96C182.534 34 182.924 33.595 183.599 33.595C184.289 33.595 184.679 34 184.679 34.96V37.105C184.679 38.05 184.289 38.47 183.599 38.47ZM192.13 32.05H187.915V40H189.7V33.745H192.13V32.05ZM195.64 40.195C197.44 40.195 198.52 39.085 198.52 37.105V34.96C198.52 32.98 197.44 31.87 195.64 31.87C193.855 31.87 192.775 32.98 192.775 34.96V37.105C192.775 39.085 193.855 40.195 195.64 40.195ZM195.64 38.47C194.965 38.47 194.575 38.05 194.575 37.105V34.96C194.575 34 194.965 33.595 195.64 33.595C196.33 33.595 196.72 34 196.72 34.96V37.105C196.72 38.05 196.33 38.47 195.64 38.47ZM68.86 47.5L67.495 52.195L65.995 47.5H64.045L66.67 55.045C66.325 56.215 65.995 56.515 65.185 56.515H64.735V58.165H65.125C66.88 58.165 67.66 57.67 68.305 55.6L70.795 47.5H68.86ZM74.6045 50.065V53.155H72.8495V50.065H71.0795V58H72.8495V54.79H74.6045V58H76.3745V50.065H74.6045ZM78.8786 48.835C79.4636 48.835 79.9136 48.355 79.9136 47.8C79.9136 47.2 79.4636 46.765 78.8786 46.765C78.2786 46.765 77.8586 47.2 77.8586 47.8C77.8586 48.385 78.2786 48.835 78.8786 48.835ZM77.9936 58H79.7636V50.065H77.9936V58ZM85.6074 53.8C86.1324 53.44 86.4174 52.885 86.4174 52.315C86.4174 50.89 85.5474 50.065 83.9124 50.065H81.3774V58H83.9724C85.9074 58 86.8224 57.115 86.8224 55.69C86.8224 54.895 86.4924 54.145 85.6074 53.8ZM83.0724 51.49H83.7774C84.3624 51.49 84.6924 51.835 84.6924 52.36C84.6924 52.945 84.3624 53.245 83.7924 53.245H83.0724V51.49ZM84.0624 56.545H83.0724V54.685H84.0624C84.7674 54.685 85.0824 54.985 85.0824 55.615C85.0824 56.23 84.7674 56.545 84.0624 56.545ZM91.6463 55.495C91.5113 56.185 91.2413 56.485 90.5063 56.485C89.8463 56.485 89.4713 56.065 89.4713 55.12V54.655H93.3263V52.885C93.3263 50.98 92.2613 49.87 90.4913 49.87C88.7513 49.87 87.7013 50.98 87.7013 52.885V55.12C87.7013 57.04 88.7513 58.18 90.4763 58.18C92.2163 58.18 93.2813 57.19 93.4313 55.495H91.6463ZM90.5063 51.52C91.1963 51.52 91.5713 51.94 91.5713 52.87V53.395H89.4713V52.87C89.4713 51.94 89.8463 51.52 90.5063 51.52ZM97.7971 49.885C97.1221 49.885 96.4471 50.29 96.0571 50.785L95.9521 50.05H94.7221V60.7H96.4471V57.67C96.8071 58 97.2871 58.195 97.7971 58.195C99.3271 58.195 100.347 57.01 100.347 55.105V52.99C100.347 51.085 99.3271 49.885 97.7971 49.885ZM98.5471 55.105C98.5471 56.065 98.1871 56.515 97.5271 56.515C96.8371 56.515 96.4471 56.005 96.4471 55.105V52.99C96.4471 52.045 96.8671 51.565 97.5271 51.565C98.1721 51.565 98.5471 52.03 98.5471 52.99V55.105ZM104.348 58.18C106.103 58.18 107.168 57.085 107.213 55.225H105.428C105.383 56.065 105.053 56.485 104.378 56.485C103.733 56.485 103.373 56.065 103.373 55.225V52.81C103.373 51.985 103.733 51.565 104.378 51.565C105.008 51.565 105.353 51.985 105.383 52.81H107.168C107.108 50.965 106.148 49.87 104.348 49.87C102.623 49.87 101.588 50.965 101.588 52.81V55.225C101.588 57.085 102.623 58.18 104.348 58.18ZM108.374 58H110.174L111.164 55.84C111.524 55.075 112.124 53.17 112.199 52.84L112.244 52.855C112.184 53.74 112.169 54.925 112.169 55.66V58H113.864V50.065H112.079L111.089 52.36C110.774 53.2 110.219 54.76 110.084 55.195L110.054 55.18C110.054 54.175 110.069 53.41 110.069 52.735V50.065H108.374V58ZM119.994 50.065H114.789V51.745H116.514V58H118.284V51.745H119.994V50.065ZM124.517 55.495C124.382 56.185 124.112 56.485 123.377 56.485C122.717 56.485 122.342 56.065 122.342 55.12V54.655H126.197V52.885C126.197 50.98 125.132 49.87 123.362 49.87C121.622 49.87 120.572 50.98 120.572 52.885V55.12C120.572 57.04 121.622 58.18 123.347 58.18C125.087 58.18 126.152 57.19 126.302 55.495H124.517ZM123.377 51.52C124.067 51.52 124.442 51.94 124.442 52.87V53.395H122.342V52.87C122.342 51.94 122.717 51.52 123.377 51.52ZM132.108 50.065H126.903V51.745H128.628V58H130.398V51.745H132.108V50.065ZM137.029 50.065L135.709 54.64L134.239 50.065H132.394L134.959 57.19L134.704 58.09C134.509 58.75 134.314 59.125 133.759 59.125H133.204V60.835H134.119C135.379 60.835 135.994 59.785 136.384 58.405L138.844 50.065H137.029Z" fill="#0F355D"/>
</svg>
