<svg width="35" height="35" viewBox="0 0 35 35" fill="none" xmlns="http://www.w3.org/2000/svg">
<path d="M35 33.4534L23.1381 21.5914C25.0754 19.3038 26.25 16.3507 26.25 13.125C26.25 5.88744 20.3625 0 13.125 0C5.8875 0 0 5.88744 0 13.125C0 20.3626 5.88744 26.25 13.125 26.25C16.3507 26.25 19.3038 25.0754 21.5914 23.1381L33.4534 35L35 33.4534ZM13.125 24.0625C7.09443 24.0625 2.18752 19.1556 2.18752 13.125C2.18752 7.09443 7.09443 2.18752 13.125 2.18752C19.1556 2.18752 24.0625 7.09443 24.0625 13.125C24.0625 19.1556 19.1556 24.0625 13.125 24.0625Z" fill="#C4C4C4"/>
</svg>
